<svg version="1" xmlns="http://www.w3.org/2000/svg" width="397.333" height="397.333" viewBox="0 0 298.000000 298.000000"><path d="M0 9.2v9.1l2.2-2.5c1.3-1.4 3.3-3.1 4.5-3.7 3.2-1.6 27.3-1.4 36.6.4 8.5 1.6 10.5 2.5 18.7 8 3 2 9.4 5.7 14.2 8.1 15.6 7.8 20.8 11.8 26.6 20.1 2.6 3.8 4.4 11 3.5 14.3-1 3.7-20.6 27.4-32.5 39.3-5.9 5.9-10.8 11.3-10.8 12.1 0 .7 2.8 2.3 6.3 3.6 18.2 6.5 32.1 19.4 38.4 35.7 3.8 9.9 4.4 27.6 1.4 38.9-5.5 19.8-23.4 48.1-44.9 70.6-12.8 13.4-23 20-35.1 22.5-5.8 1.2-6.7 1.2-10-.4-2.1-1.1-4.4-3.3-5.5-5.4-2.6-4.7-1.5-8.6 5.1-18.9l4.8-7.5-.1-22.5c-.1-18.1-.7-28-3.3-51-1.7-15.7-4-32.8-5.1-38-2.4-11.4-2.5-18.3-.5-23.9 1.8-5.1 1.8-5.1 1-36.6-.3-13.8-1.1-26.7-1.7-28.7-1.3-4.3-4.2-7.3-8-8.2-1.4-.3-3.3-.9-4.2-1.2C.1 42.8 0 54.1 0 170.4V298h298V0H0v9.2zm284.8 34.2c3 2.7 7.1 10.6 8.8 17.1 2.4 8.7 2.7 20.4 1.5 50.6-1.4 35.5-2.5 49-5.7 67.4-7.3 42.5-16.9 63.9-31.2 68.9-6.1 2.2-9.8 1.1-15.2-4.3-6.6-6.7-10.1-13.4-18.5-36C216.2 184.8 210 170 209 170c-1.1 0-5.6 11.3-12.9 33.1-11.4 33.4-18 46.6-27.3 54-6.1 4.8-11.3 6.3-18.1 5.2l-5.2-.8-3.9-8c-11.3-23.2-19.4-54-23.1-87.8-2.9-26.9-1.2-76.1 2.9-86 2-4.5 7.9-11.3 11.7-13.3 7.7-3.9 13.4-.1 17 11.7 2.8 9 3.1 22.7 1 47.9-1 12.5-1.1 18.6-.3 25 3.4 26.9 4.5 34.3 6.2 41.8 2.1 8.6 5.7 18.2 7 18.2 2.2 0 11.1-23.5 15.6-41.4 10.2-40.3 21.9-59.8 33.8-56.5 10.4 2.9 22.5 24.7 29.7 53.9 3.4 13.4 6.3 20.4 8.2 19.7 1.5-.5 5.9-9.1 8.1-16 1-2.9 2.4-10.1 3.3-16.2 1.6-10.7 1.6-11.6-.8-30.5-1.8-15.1-2.3-24.5-2.4-42 0-12.4.4-24.2.8-26.3 1.3-6.2 7.9-12.4 15.7-14.8 3.2-.9 5.9-.2 8.8 2.5z"/><path d="M45.1 50.3c-3.7 4.5-5.5 16.4-4.4 28.7.7 7.9 1 8.5 3.2 8.8 7.7 1.1 17.3-5.9 22.2-16.3 4.8-10.1 4.2-11.4-8-18-8.9-4.8-11.2-5.3-13-3.2zM49.8 148.8c-2.5 1.3-3.6 2.8-4.7 6.2-1.3 4-1.2 7.1.8 28.5 2.6 26.9 5.6 48.4 7.1 49.9.7.7 1.5.5 2.3-.4 23.1-25.6 28.3-35.8 27.5-52.7-.5-10.5-2.8-15.9-9.9-23.3-7.8-8.1-16.7-11.3-23.1-8.2z"/></svg>